<svg xmlns="http://www.w3.org/2000/svg" viewBox="0 0 354.33 354.33"><g transform="translate(0-698.03)"><path fill="#f9bf3b" color="#000" d="m-11.221 692.05h377.77v523.47h-377.77z"/><path d="m136.75 887.48c0-40.29-32.661-72.949-72.95-72.949v-10.322c45.989 0 83.27 37.28 83.27 83.27h-10.322" fill="#7ab348"/><path d="m110 906.09c6.35-20.707 25.622-35.763 48.41-35.763 13.792 0 26.296 5.515 35.427 14.461 72.51 4.795 129.84 65.13 129.84 138.85 0 51.11-27.55 95.78-68.61 119.98-5.198 22.432-25.306 39.15-49.32 39.15-17.08 0-32.18-8.458-41.35-21.413-67.32-9.75-119.04-67.69-119.04-137.72 0-49.45 25.787-92.87 64.65-117.55" fill="#fee64c"/><g fill-rule="evenodd"><g fill="#fbc54b"><path d="m128.93 1028.17c0-4.881 9.768-8.839 21.818-8.839 12.05 0 21.818 3.958 21.818 8.839 0 4.883-9.768 8.839-21.818 8.839-12.05 0-21.818-3.957-21.818-8.839"/><path d="m238.17 1028.17c0-4.881 9.768-8.839 21.818-8.839 12.05 0 21.818 3.958 21.818 8.839 0 4.883-9.768 8.839-21.818 8.839-12.05 0-21.818-3.957-21.818-8.839"/></g><g fill="#f79011"><path d="m137.68 995.22c0-5.725 4.641-10.366 10.366-10.366 5.725 0 10.366 4.64 10.366 10.366 0 5.725-4.642 10.366-10.366 10.366-5.725 0-10.366-4.641-10.366-10.366"/><path d="m246.92 995.22c0-5.725 4.641-10.366 10.366-10.366 5.725 0 10.366 4.64 10.366 10.366 0 5.725-4.642 10.366-10.366 10.366-5.725 0-10.366-4.641-10.366-10.366"/></g><path d="m103.86 819.1c57.08-1.994 101.74-49.886 99.75-106.97-57.08 1.994-101.74 49.886-99.75 106.97" fill="#7ab348"/><path d="m198 714.51c-51.26 1.778-91.37 44.492-89.58 95.39 3.338-.116 6.632-.427 9.867-.881 38.1-44.29 64.13-74.928 79.71-93.62-.007-.295.011-.585 0-.881" opacity=".06"/></g></g></svg>